<svg xmlns="http://www.w3.org/2000/svg" viewBox="0 0 100 150">
  <!-- water tank -->
  <path d="M25 50 V95 Q25 105 50 105 Q75 105 75 95 V50" fill="none" stroke="#0ea5e9" stroke-width="5" stroke-linecap="round" stroke-linejoin="round"/>
  <ellipse cx="50" cy="50" rx="25" ry="11" fill="none" stroke="#0ea5e9" stroke-width="5"/>
  <!-- taps -->
  <path d="M40 18 V35 q0 5 5 5" fill="none" stroke="#0ea5e9" stroke-width="5" stroke-linecap="round"/>
  <path d="M60 18 V35 q0 5 -5 5" fill="none" stroke="#0ea5e9" stroke-width="5" stroke-linecap="round"/>
  <!-- water droplets -->
  <path d="M45 42 q2 4 0 6 q-2 -2 0 -6Z" fill="#0ea5e9" stroke="none"/>
  <path d="M55 42 q2 4 0 6 q-2 -2 0 -6Z" fill="#0ea5e9" stroke="none"/>
  <!-- wash basin -->
  <path d="M20 110 q30 14 60 0" fill="none" stroke="#0ea5e9" stroke-width="5" stroke-linecap="round"/>
  <path d="M22 110 q2 16 28 16 q26 0 28 -16" fill="none" stroke="#0ea5e9" stroke-width="5" stroke-linecap="round" stroke-linejoin="round"/>
  <!-- legs -->
  <line x1="30" y1="126" x2="26" y2="142" stroke="#0ea5e9" stroke-width="5" stroke-linecap="round"/>
  <line x1="70" y1="126" x2="74" y2="142" stroke="#0ea5e9" stroke-width="5" stroke-linecap="round"/>
</svg>
